HIERARCHY
ROOT Hips
{
	OFFSET 0.00000 0.00000 0.00000
	CHANNELS 6 Xposition Yposition Zposition Zrotation Yrotation Xrotation 
	JOINT LHipJoint
	{
		OFFSET 0 0 0
		CHANNELS 3 Zrotation Yrotation Xrotation
		JOINT LeftHip
		{
			OFFSET 1.41496 -1.84582 0.78394
			CHANNELS 3 Zrotation Yrotation Xrotation
			JOINT LeftKnee
			{
				OFFSET 2.58040 -7.08960 0.00000
				CHANNELS 3 Zrotation Yrotation Xrotation
				JOINT LeftAnkle
				{
					OFFSET 2.64719 -7.27309 0.00000
					CHANNELS 3 Zrotation Yrotation Xrotation
					JOINT LeftToe
					{
						OFFSET 0.20718 -0.56921 2.20259
						CHANNELS 3 Zrotation Yrotation Xrotation
						End Site
						{
							OFFSET 0.00000 -0.00000 1.14243
						}
					}
				}
			}
		}
	}
	JOINT RHipJoint
	{
		OFFSET 0 0 0
		CHANNELS 3 Zrotation Yrotation Xrotation
		JOINT RightHip
		{
			OFFSET -1.40551 -1.84582 0.78394
			CHANNELS 3 Zrotation Yrotation Xrotation
			JOINT RightKnee
			{
				OFFSET -2.56572 -7.04926 0.00000
				CHANNELS 3 Zrotation Yrotation Xrotation
				JOINT RightAnkle
				{
					OFFSET -2.57974 -7.08778 0.00000
					CHANNELS 3 Zrotation Yrotation Xrotation
					JOINT RightToe
					{
						OFFSET -0.26704 -0.73369 2.20815
						CHANNELS 3 Zrotation Yrotation Xrotation
						End Site
						{
							OFFSET -0.00000 -0.00000 1.16246
						}
					}
				}
			}
		}
	}
	JOINT lowerback
	{
		OFFSET 0 0 0
		CHANNELS 3 Zrotation Yrotation Xrotation
		JOINT Chest
		{
			OFFSET -0.04690 2.05196 -0.07017
			CHANNELS 3 Zrotation Yrotation Xrotation
			JOINT Chest2
			{
				OFFSET 0.04085 2.05260 0.00800
				CHANNELS 3 Zrotation Yrotation Xrotation
				JOINT lowerneck
				{
					OFFSET 0 0 0
					CHANNELS 3 Zrotation Yrotation Xrotation
					JOINT Neck
					{
						OFFSET -0.03582 1.80995 0.19301
						CHANNELS 3 Zrotation Yrotation Xrotation
						JOINT Head
						{
							OFFSET 0.00952 1.80195 -0.36389
							CHANNELS 3 Zrotation Yrotation Xrotation
							End Site
							{
								OFFSET 0.00392 1.85062 -0.14494
							}
						}
					}
				}
				JOINT LeftCollar
				{
					OFFSET 0 0 0
					CHANNELS 3 Zrotation Yrotation Xrotation
					JOINT LeftShoulder
					{
						OFFSET 3.55224 1.39726 -0.13667
CHANNELS 3 Zrotation Xrotation Yrotation
						JOINT LeftElbow
						{
OFFSET 0 -5.145070 -0.000000
CHANNELS 3 Zrotation Xrotation Yrotation
							JOINT LeftWrist
							{
OFFSET 0 -3.506460 0.000000
CHANNELS 3 Zrotation Xrotation Yrotation
								JOINT lhand
								{
									OFFSET 0 0 0
CHANNELS 3 Zrotation Xrotation Yrotation
									JOINT LFingers
									{
OFFSET 0 -0.629970 0.000000
CHANNELS 3 Zrotation Xrotation Yrotation
										End Site
										{
OFFSET 0 -0.507900 0.000000
										}
									}
								}
								JOINT LThumb
								{
OFFSET 0 0.000000 0.000000
CHANNELS 3 Zrotation Xrotation Yrotation
									End Site
									{
OFFSET 0 -0.515650 0.515650
									}
								}
							}
						}
					}
				}
				JOINT RightCollar
				{
					OFFSET 0 0 0
					CHANNELS 3 Zrotation Yrotation Xrotation
					JOINT RightShoulder
					{
						OFFSET -3.06467 1.61290 -0.28813
CHANNELS 3 Zrotation Xrotation Yrotation
						JOINT RightElbow
						{
OFFSET 0 -5.232000 -0.000000
CHANNELS 3 Zrotation Xrotation Yrotation
							JOINT RightWrist
							{
OFFSET 0 -3.656410 0.000000
CHANNELS 3 Zrotation Xrotation Yrotation
								JOINT rhand
								{
									OFFSET 0 0 0
CHANNELS 3 Zrotation Xrotation Yrotation
									JOINT RFingers
									{
OFFSET 0 -0.656810 0.000000
CHANNELS 3 Zrotation Xrotation Yrotation
										End Site
										{
OFFSET 0 -0.529530 0.000000
										}
									}
								}
								JOINT RThumb
								{
OFFSET 0 0.000000 0.000000
CHANNELS 3 Zrotation Xrotation Yrotation
									End Site
									{
OFFSET 0 -0.537620 0.537620
									}
								}
							}
						}
					}
				}
			}
		}
	}
}
MOTION
Frames: 8
Frame Time: 0.008333333333333333
0.104100 16.551700 -36.211000 8.820600 -5.671500 15.020000 0.000000 0.000000 0.000000 -38.798900 -6.763100 7.551400 7.417700 15.673800 50.437100 0.684600 0.276200 15.544400 0.448700 -4.297500 -11.915200 0.000000 0.000000 0.000000 -6.959100 12.961600 -64.519900 -8.620100 -16.557000 54.766900 -0.596800 -2.110000 -15.508900 -0.206600 2.926900 -8.075200 -5.077800 -2.038800 14.767100 1.604300 -3.464700 -1.017900 5.375300 -1.374700 -9.004700 -0.255600 2.537000 -18.927300 -6.508900 4.337800 8.617800 -1.588900 1.570200 5.828700 0.000000 0.000000 0.000000 8.842900 -6.030300 -62.276300 124.875800 -54.864100 89.682500 20.392300 -5.842000 3.212300 0.000000 0.000000 0.000000 -7.125000 0.000000 0.000000 -4.734300 26.547400 -2.126000 0.000000 0.000000 0.000000 -9.555400 20.375000 21.584200 -106.970500 -58.883300 -74.641800 -31.931600 -14.797300 -5.907300 0.000000 0.000000 0.000000 7.125000 0.000000 -0.000000 -3.839600 23.032800 -2.035700
0.081481 16.551120 -35.789880 8.056268 -6.014003 14.418381 0.000000 0.000000 0.000000 -38.134516 -6.122817 5.686485 8.591810 16.502315 54.611700 0.605209 -0.183714 14.756032 0.330258 -3.661857 -10.130836 0.000000 0.000000 0.000000 -5.646184 13.363195 -63.001805 -8.631699 -16.564797 54.807498 -0.566320 -2.118377 -15.138366 -0.330326 3.652889 -10.106372 -4.410001 -1.795214 15.220312 1.938425 -3.003562 -0.807630 5.279026 -1.175771 -9.102457 -0.455688 2.468499 -18.800030 -6.608074 4.290694 8.396446 -1.594571 1.541331 5.735519 0.000000 0.000000 0.000000 8.965917 -5.280919 -62.182861 121.774525 -55.784958 87.123558 20.087173 -6.971195 3.618277 0.000000 0.000000 0.000000 -7.125000 0.000000 0.000000 -4.954430 26.123444 -2.276082 0.000000 0.000000 0.000000 -9.991857 18.481731 21.735185 -105.878552 -59.022685 -73.705863 -32.368122 -14.592378 -5.897956 0.000000 0.000000 0.000000 7.125000 0.000000 0.000000 -4.160257 23.011406 -2.208723
0.058891 16.550944 -35.366362 7.171934 -6.282135 13.789730 0.000000 0.000000 0.000000 -37.280698 -5.473927 3.857210 9.774469 17.254091 58.695092 0.515767 -0.651281 13.790043 0.271976 -3.353931 -9.265827 0.000000 0.000000 0.000000 -4.130146 13.690766 -61.289309 -8.655342 -16.580710 54.890349 -0.541644 -2.056775 -14.799861 -0.382831 3.971246 -10.996004 -3.589592 -1.583398 15.707806 2.296291 -2.550020 -0.576016 5.120049 -0.987760 -9.195968 -0.598216 2.398237 -18.717034 -6.745488 4.235356 8.214920 -1.622047 1.505530 5.664143 0.000000 0.000000 0.000000 9.098783 -4.580260 -62.013233 118.415974 -56.680545 84.330157 19.481361 -7.901570 3.804379 0.000000 0.000000 0.000000 -7.125000 0.000000 0.000000 -5.407950 25.939263 -2.507495 0.000000 0.000000 0.000000 -10.390653 16.546093 21.921087 -104.786286 -59.155024 -72.768770 -32.780469 -14.475892 -5.912757 0.000000 0.000000 0.000000 7.125000 0.000000 0.000000 -4.460842 22.962834 -2.374324
0.036337 16.551267 -34.939894 6.139852 -6.458703 13.127794 0.000000 0.000000 0.000000 -36.193648 -4.814441 2.071815 10.967654 17.911386 62.666187 0.413951 -1.128271 12.605365 0.287764 -3.449497 -9.532741 0.000000 0.000000 0.000000 -2.364018 13.927199 -59.337464 -8.693813 -16.606616 55.025223 -0.524116 -1.909012 -14.500792 -0.347646 3.787718 -10.480156 -2.581287 -1.410696 16.237509 2.683386 -2.105830 -0.318125 4.883874 -0.813190 -9.284251 -0.669874 2.325806 -18.688552 -6.929981 4.169885 8.082430 -1.676371 1.461194 5.619614 0.000000 0.000000 0.000000 9.243775 -3.939591 -61.749799 114.740661 -57.545017 81.248086 18.505342 -8.587155 3.719768 0.000000 0.000000 0.000000 -7.125000 0.000000 0.000000 -6.148825 26.050294 -2.839043 0.000000 0.000000 0.000000 -10.743079 14.558290 22.149980 -103.693629 -59.278685 -71.830255 -33.163054 -14.468288 -5.957286 0.000000 0.000000 0.000000 7.125000 0.000000 0.000000 -4.736712 22.880801 -2.530786
0.006274 16.547661 -34.515158 4.961686 -6.609739 12.518539 0.000000 0.000000 0.000000 -34.793637 -4.140340 0.145247 12.146398 18.425892 66.423734 0.315774 -1.465475 11.188306 0.335322 -3.714597 -10.275852 0.000000 0.000000 0.000000 -0.378103 14.140527 -57.230871 -8.747476 -16.642398 55.212604 -0.502603 -1.787474 -14.157765 -0.396102 4.034352 -11.174210 -1.542022 -1.251627 16.789450 3.138411 -1.654015 -0.070688 4.695989 -0.634288 -9.383510 -0.765908 2.251237 -18.677744 -7.083572 4.104297 7.964034 -1.716716 1.417957 5.581035 0.000000 0.000000 0.000000 9.336029 -3.292509 -61.495376 110.275383 -58.330817 77.454548 19.076156 -7.898675 3.823464 0.000000 0.000000 0.000000 -7.125000 0.000000 0.000000 -5.713820 25.928483 -2.651764 0.000000 0.000000 0.000000 -11.039707 12.449647 22.435770 -102.598257 -59.388773 -70.887813 -33.295178 -14.543920 -5.995807 0.000000 0.000000 0.000000 7.125000 0.000000 0.000000 -4.829706 22.824819 -2.586972
-0.026190 16.553238 -34.095796 3.878828 -6.716081 11.920680 0.000000 0.000000 0.000000 -33.415842 -3.617778 -2.027404 13.302712 18.873843 70.050037 0.217640 -1.695595 9.488352 0.360463 -3.855905 -10.671862 0.000000 0.000000 0.000000 1.521004 14.193627 -55.046528 -8.841796 -16.704346 55.540587 -0.509360 -1.525709 -14.117465 -0.358352 3.725420 -10.317728 -0.620876 -1.105103 17.466105 3.550642 -1.235202 0.121186 4.540774 -0.464099 -9.604581 -0.860497 2.168695 -18.620687 -7.198131 4.021955 7.859324 -1.746741 1.370338 5.537727 0.000000 0.000000 0.000000 9.439217 -2.597770 -61.040475 105.807038 -59.001987 73.640975 19.955465 -6.954070 4.177095 0.000000 0.000000 0.000000 -7.125000 0.000000 0.000000 -5.043137 25.530629 -2.378726 0.000000 0.000000 0.000000 -11.184760 10.337136 22.797636 -101.667522 -59.478662 -70.086620 -33.377277 -14.614565 -6.056748 0.000000 0.000000 0.000000 7.125000 0.000000 0.000000 -4.883972 22.746004 -2.625037
-0.061568 16.577145 -33.686275 3.009394 -6.743017 11.332916 0.000000 0.000000 0.000000 -32.149131 -3.386693 -4.637125 14.419534 19.226591 73.473644 0.118787 -1.752754 7.301362 0.335975 -3.724445 -10.302874 0.000000 0.000000 0.000000 3.206644 13.947012 -52.748314 -9.010115 -16.813895 56.124485 -0.570772 -0.991431 -14.662698 -0.138223 2.265064 -6.245653 0.068768 -0.979443 18.375106 3.866531 -0.880842 0.209663 4.437089 -0.311439 -10.054958 -0.946977 2.071454 -18.471765 -7.245237 3.907766 7.777548 -1.760209 1.314146 5.484112 0.000000 0.000000 0.000000 9.574800 -1.813784 -60.202230 101.506585 -59.472404 69.945750 21.081438 -5.824424 4.964755 0.000000 0.000000 0.000000 -7.125000 0.000000 0.000000 -4.182724 24.658874 -2.056651 0.000000 0.000000 0.000000 -11.053752 8.243843 23.291703 -101.050566 -59.533115 -69.554984 -33.419292 -14.657419 -6.161657 0.000000 0.000000 0.000000 7.125000 0.000000 0.000000 -4.904786 22.618024 -2.650684
-0.095822 16.575050 -33.277469 2.082182 -6.847756 10.773607 0.000000 0.000000 0.000000 -30.870874 -3.033004 -6.965622 15.526037 19.493977 76.804276 0.059322 -1.912338 5.545889 0.327171 -3.676306 -10.167703 0.000000 0.000000 0.000000 4.843754 13.804560 -50.691885 -9.175267 -16.918541 56.693312 -0.642095 -0.679629 -15.386627 -0.086470 1.895478 -5.216925 0.870187 -0.851025 19.139536 4.195650 -0.484797 0.350093 4.258053 -0.150759 -10.362500 -1.018897 1.977329 -18.382969 -7.332292 3.798379 7.664713 -1.787674 1.257494 5.431825 0.000000 0.000000 0.000000 9.755593 -1.114140 -59.645106 97.472900 -59.751099 66.464776 21.674899 -5.353214 5.382506 0.000000 0.000000 0.000000 -7.125000 0.000000 0.000000 -3.735232 24.190846 -1.878739 0.000000 0.000000 0.000000 -11.053624 6.191776 23.697750 -100.320764 -59.592267 -68.925724 -33.491499 -14.639174 -6.264421 0.000000 0.000000 0.000000 7.125000 0.000000 0.000000 -4.947516 22.489892 -2.688541
